<svg id="visual" viewBox="0 0 900 600" width="900" height="600" xmlns="http://www.w3.org/2000/svg" xmlns:xlink="http://www.w3.org/1999/xlink" version="1.1"><path d="M0 360L30 346C60 332 120 304 180 299.8C240 295.7 300 315.3 360 327.7C420 340 480 345 540 362.2C600 379.3 660 408.7 720 404.3C780 400 840 362 870 343L900 324L900 0L870 0C840 0 780 0 720 0C660 0 600 0 540 0C480 0 420 0 360 0C300 0 240 0 180 0C120 0 60 0 30 0L0 0Z" fill="#dd2a68" stroke-linecap="round" stroke-linejoin="miter"></path></svg>